<svg xmlns="http://www.w3.org/2000/svg" xmlns:xlink="http://www.w3.org/1999/xlink" width="500" zoomAndPan="magnify" viewBox="0 0 375 374.999991" height="500" preserveAspectRatio="xMidYMid meet" version="1.0"><defs><clipPath id="5e41d35281"><path d="M 169 6.429688 L 368 6.429688 L 368 170 L 169 170 Z M 169 6.429688 " clip-rule="nonzero"/></clipPath><clipPath id="ce9e8c7ea3"><path d="M 191.148438 139.472656 L 375 139.472656 L 375 349.128906 L 191.148438 349.128906 Z M 191.148438 139.472656 " clip-rule="nonzero"/></clipPath></defs><g clip-path="url(#5e41d35281)"><path fill="#d91c5c" d="M 332.332031 169.207031 C 332.332031 169.207031 332.488281 168.894531 332.789062 168.289062 C 333.09375 167.683594 333.574219 166.789062 334.125 165.628906 C 335.234375 163.3125 336.839844 159.902344 338.453125 155.507812 C 338.882812 154.425781 339.277344 153.257812 339.703125 152.050781 C 340.097656 150.824219 340.507812 149.554688 340.90625 148.222656 C 341.320312 146.902344 341.691406 145.503906 342.078125 144.070312 C 342.425781 142.617188 342.804688 141.128906 343.136719 139.585938 C 344.492188 133.40625 345.515625 126.410156 345.871094 118.851562 C 346.234375 111.300781 345.910156 103.179688 344.558594 94.941406 C 343.222656 86.703125 340.804688 78.359375 337.101562 70.597656 C 333.375 62.84375 328.316406 55.75 321.9375 49.953125 C 315.566406 44.136719 307.847656 39.628906 299.210938 36.519531 C 298.675781 36.3125 298.128906 36.132812 297.578125 35.960938 L 295.9375 35.40625 C 294.824219 35.074219 293.710938 34.738281 292.582031 34.429688 L 290.875 33.996094 L 290.027344 33.769531 C 290.085938 33.777344 289.738281 33.707031 290.136719 33.78125 L 290.011719 33.757812 L 289.761719 33.707031 L 289.265625 33.601562 L 287.273438 33.1875 L 285.714844 32.910156 L 284.929688 32.773438 L 284.078125 32.652344 C 283.503906 32.574219 282.9375 32.480469 282.367188 32.414062 C 281.222656 32.292969 280.082031 32.128906 278.9375 32.058594 C 276.644531 31.851562 274.347656 31.792969 272.046875 31.804688 C 262.855469 31.847656 253.675781 33.535156 245 36.441406 C 236.320312 39.339844 228.117188 43.339844 220.707031 47.933594 C 213.28125 52.515625 206.609375 57.640625 200.785156 62.820312 C 197.871094 65.40625 195.160156 68.007812 192.675781 70.589844 C 190.175781 73.160156 187.890625 75.699219 185.839844 78.171875 C 183.777344 80.640625 181.910156 83.023438 180.28125 85.300781 C 178.648438 87.578125 177.199219 89.71875 175.972656 91.714844 C 173.5 95.695312 171.84375 99.035156 170.785156 101.359375 C 170.269531 102.527344 169.871094 103.433594 169.636719 104.054688 C 169.382812 104.675781 169.253906 104.992188 169.253906 104.992188 C 169.253906 104.992188 169.265625 104.648438 169.289062 103.980469 C 169.316406 103.308594 169.382812 102.316406 169.515625 101.015625 C 169.796875 98.429688 170.402344 94.609375 171.761719 89.867188 C 172.457031 87.507812 173.296875 84.898438 174.386719 82.121094 C 175.484375 79.351562 176.765625 76.382812 178.316406 73.289062 C 179.878906 70.203125 181.664062 66.972656 183.710938 63.65625 C 185.765625 60.339844 188.101562 56.960938 190.707031 53.539062 C 195.929688 46.714844 202.296875 39.769531 209.949219 33.28125 C 217.582031 26.789062 226.535156 20.742188 236.78125 16.003906 C 247 11.265625 258.585938 7.890625 270.808594 6.898438 C 273.855469 6.648438 276.9375 6.535156 280.035156 6.589844 C 281.582031 6.59375 283.128906 6.679688 284.683594 6.757812 C 285.457031 6.808594 286.230469 6.886719 287.007812 6.949219 L 288.171875 7.050781 L 289.398438 7.195312 L 291.867188 7.5 L 293.878906 7.804688 L 294.382812 7.882812 L 294.636719 7.917969 L 294.757812 7.9375 L 295.121094 8.003906 L 296.257812 8.207031 L 298.539062 8.632812 C 300.050781 8.945312 301.570312 9.296875 303.089844 9.65625 C 304.601562 10.070312 306.121094 10.425781 307.617188 10.925781 C 319.644531 14.558594 331.320312 20.992188 340.625 29.824219 C 345.261719 34.226562 349.375 39.113281 352.75 44.324219 C 356.164062 49.515625 358.867188 54.996094 360.988281 60.515625 C 365.179688 71.582031 366.933594 82.777344 367.035156 93.171875 C 367.15625 103.585938 365.671875 113.246094 363.324219 121.78125 C 360.980469 130.328125 357.746094 137.753906 354.300781 143.933594 C 350.847656 150.117188 347.148438 155.039062 343.851562 158.789062 C 340.519531 162.535156 337.625 165.128906 335.550781 166.789062 C 334.535156 167.640625 333.714844 168.207031 333.164062 168.609375 C 332.617188 169.003906 332.332031 169.207031 332.332031 169.207031 " fill-opacity="1" fill-rule="nonzero"/></g><path fill="#d91c5c" d="M 169.761719 63.710938 C 169.761719 63.710938 169.402344 63.390625 168.699219 62.769531 C 168.003906 62.144531 166.949219 61.238281 165.578125 60.074219 C 164.199219 58.914062 162.476562 57.523438 160.429688 55.9375 C 159.402344 55.144531 158.289062 54.320312 157.085938 53.460938 C 155.890625 52.597656 154.609375 51.699219 153.234375 50.789062 C 150.480469 48.976562 147.398438 47.0625 143.949219 45.207031 C 140.496094 43.375 136.714844 41.539062 132.574219 39.953125 C 128.433594 38.378906 123.984375 36.949219 119.226562 35.96875 C 114.46875 34.984375 109.445312 34.351562 104.230469 34.269531 C 99.011719 34.179688 93.613281 34.625 88.128906 35.648438 C 87.445312 35.789062 86.753906 35.90625 86.070312 36.0625 L 85.035156 36.289062 C 85.0625 36.285156 84.800781 36.332031 85.058594 36.292969 L 84.914062 36.324219 L 84.632812 36.394531 L 84.054688 36.53125 C 83.292969 36.714844 82.527344 36.898438 81.761719 37.082031 C 81.113281 37.265625 80.457031 37.453125 79.804688 37.640625 C 79.164062 37.808594 78.460938 38.050781 77.777344 38.261719 C 77.089844 38.484375 76.394531 38.691406 75.722656 38.945312 C 75.042969 39.183594 74.359375 39.429688 73.675781 39.675781 C 73.003906 39.9375 72.328125 40.203125 71.652344 40.464844 C 66.285156 42.679688 61.085938 45.460938 56.34375 48.976562 C 51.597656 52.46875 47.261719 56.617188 43.554688 61.382812 C 36.105469 70.863281 31.183594 82.789062 29.367188 95.546875 C 27.523438 108.304688 28.746094 121.808594 32.773438 134.398438 C 33.792969 137.542969 34.972656 140.636719 36.316406 143.65625 C 37.652344 146.671875 39.191406 149.597656 40.839844 152.441406 C 42.503906 155.28125 44.324219 158.023438 46.292969 160.644531 L 46.65625 161.136719 L 46.839844 161.386719 C 46.667969 161.171875 46.851562 161.40625 46.84375 161.394531 L 46.953125 161.535156 L 47.828125 162.65625 L 48.703125 163.78125 L 49.476562 164.726562 C 50.457031 165.953125 51.605469 167.289062 52.722656 168.566406 C 61.746094 178.867188 72.410156 187.871094 83.476562 196.257812 C 94.550781 204.644531 105.988281 212.484375 116.722656 220.507812 C 127.464844 228.511719 137.492188 236.722656 145.984375 245.21875 C 150.234375 249.460938 154.105469 253.746094 157.566406 258 C 161 262.28125 164.054688 266.496094 166.679688 270.597656 C 171.925781 278.820312 175.574219 286.464844 178.03125 292.898438 C 179.296875 296.101562 180.253906 299.015625 181.027344 301.554688 C 181.417969 302.824219 181.738281 304.011719 182.046875 305.09375 C 182.351562 306.171875 182.566406 307.171875 182.792969 308.054688 C 183.25 309.820312 183.496094 311.199219 183.695312 312.113281 C 183.882812 313.035156 183.976562 313.507812 183.976562 313.507812 C 183.976562 313.507812 183.742188 313.085938 183.285156 312.265625 C 182.828125 311.445312 182.179688 310.21875 181.273438 308.65625 C 180.386719 307.085938 179.25 305.175781 177.90625 302.957031 C 177.203125 301.863281 176.488281 300.675781 175.664062 299.441406 C 175.257812 298.824219 174.839844 298.183594 174.410156 297.527344 C 173.980469 296.875 173.507812 296.21875 173.039062 295.535156 C 172.570312 294.855469 172.089844 294.15625 171.566406 293.460938 C 171.058594 292.757812 170.535156 292.039062 170.003906 291.304688 C 169.457031 290.582031 168.894531 289.839844 168.320312 289.082031 C 167.746094 288.332031 167.125 287.582031 166.515625 286.8125 C 164.019531 283.753906 161.273438 280.519531 158.132812 277.277344 C 151.925781 270.722656 144.285156 264.0625 135.382812 257.523438 C 126.476562 250.972656 116.25 244.605469 105.058594 238.027344 C 93.882812 231.425781 81.707031 224.601562 69.257812 216.46875 C 66.144531 214.441406 63.027344 212.308594 59.910156 210.082031 C 58.355469 208.972656 56.796875 207.824219 55.242188 206.667969 C 53.699219 205.488281 52.152344 204.289062 50.617188 203.054688 C 44.464844 198.136719 38.441406 192.707031 32.808594 186.679688 C 31.402344 185.160156 30.039062 183.664062 28.605469 181.976562 L 27.550781 180.75 L 25.738281 178.550781 L 25.414062 178.148438 L 25.164062 177.828125 L 24.667969 177.191406 C 22.015625 173.777344 19.554688 170.199219 17.304688 166.488281 C 15.042969 162.777344 13.039062 158.902344 11.234375 154.941406 C 9.4375 150.976562 7.867188 146.898438 6.566406 142.734375 C 1.285156 126.121094 0.0195312 108.21875 3.144531 91.191406 C 4.683594 82.675781 7.355469 74.394531 11.066406 66.683594 C 12.925781 62.832031 15.039062 59.117188 17.402344 55.601562 C 19.769531 52.085938 22.375 48.761719 25.175781 45.671875 C 27.988281 42.585938 31.003906 39.742188 34.167969 37.152344 C 37.332031 34.5625 40.65625 32.257812 44.058594 30.207031 C 50.871094 26.097656 58.054688 23.15625 65.148438 21.140625 C 66.039062 20.902344 66.925781 20.660156 67.8125 20.425781 C 68.695312 20.203125 69.582031 20.011719 70.460938 19.808594 C 71.34375 19.597656 72.226562 19.441406 73.105469 19.273438 C 73.992188 19.109375 74.832031 18.933594 75.765625 18.796875 C 76.679688 18.660156 77.585938 18.519531 78.488281 18.382812 C 79.3125 18.277344 80.078125 18.199219 80.867188 18.113281 L 81.457031 18.050781 L 81.75 18.019531 L 81.894531 18.003906 C 82.253906 17.945312 82.089844 17.980469 82.210938 17.964844 L 83.503906 17.851562 C 84.359375 17.769531 85.21875 17.730469 86.070312 17.667969 C 89.484375 17.464844 92.855469 17.484375 96.144531 17.660156 C 99.433594 17.828125 102.652344 18.199219 105.761719 18.722656 C 108.875 19.234375 111.882812 19.917969 114.769531 20.734375 C 117.65625 21.539062 120.417969 22.480469 123.046875 23.53125 C 128.304688 25.628906 133.058594 28.050781 137.25 30.691406 C 141.449219 33.308594 145.148438 36.039062 148.359375 38.773438 C 151.578125 41.492188 154.351562 44.160156 156.714844 46.675781 C 157.898438 47.933594 158.988281 49.148438 159.992188 50.300781 C 160.984375 51.46875 161.894531 52.574219 162.71875 53.617188 C 164.375 55.699219 165.691406 57.53125 166.730469 59.027344 C 167.769531 60.527344 168.515625 61.707031 169.019531 62.5 C 169.507812 63.300781 169.761719 63.710938 169.761719 63.710938 " fill-opacity="1" fill-rule="nonzero"/><g clip-path="url(#ce9e8c7ea3)"><path fill="#008b95" d="M 358.617188 169.191406 C 330.976562 255.730469 223.070312 250.339844 259.101562 233.660156 C 297.316406 215.972656 301.191406 167.433594 285.070312 188.328125 C 265.035156 214.304688 240.960938 207.160156 211.132812 239.3125 C 173.621094 279.75 200.617188 349.128906 200.617188 349.128906 C 209.34375 305.558594 271.789062 283.457031 326.46875 247.328125 C 381.152344 211.199219 386.257812 82.648438 358.617188 169.191406 " fill-opacity="1" fill-rule="nonzero"/></g></svg>